<svg id="svg" xmlns="http://www.w3.org/2000/svg" viewBox="0 0 500 109"><defs><style>.cls-1,.cls-2{fill:#fff;}.cls-1{fill-rule:evenodd;}</style></defs><title>logo-txt(wh)</title><path class="cls-1" d="M398.74,5.8c-5.95,1-9.27,8.7-5.9,13.68,4.11,6.11,13.66,5.75,16.87-.64,3.56-7.08-2.65-14.47-11-13"/><polyline class="cls-1" points="121.53 54.1 121.53 101.17 138.99 101.17 138.99 7.03 121.53 7.03 121.53 54.1"/><path class="cls-1" d="M430.62,22.77l-.18,8.89-4.8.17-4.81.18-.37,2a41.82,41.82,0,0,0-.17,6.68l.19,4.67,4.34.19c6.37.28,5.95-1.15,5.95,20,0,23.65.82,27.18,7.51,32.57,4.74,3.82,15.41,5.57,23,3.8l2.19-.51.18-7.36.17-7.35-2,.44c-12.16,2.68-13.55.29-13.57-23.51,0-20-1-18,8.76-18h6.82V32H448.24V13.86H430.81l-.18,8.89"/><path class="cls-1" d="M153.94,55.85c0,14.53.27,25.35.67,27.6,3.51,19.18,26.86,26.08,41.72,12.32,4.49-4.15,4.36-4.18,4.36,1v4.36h16.84V32H200.15l-.19,22c-.23,25-.28,25.33-5.35,29.78-6.45,5.68-15.93,5.64-20.27-.09-2.75-3.63-3.08-6.42-3.29-26.72-.11-10.46-.21-20.35-.24-22l-.05-3H153.93V55.85"/><path class="cls-1" d="M392.39,32.74c-.16.43-.22,15.93-.14,34.45l.16,33.66L401,101l8.57.18.08-9.53c.06-7.9,0-56.36-.07-58.93,0-.59-2.14-.78-8.46-.78s-8.52.21-8.73.78"/><path class="cls-2" d="M256,31.07h0c-18.69,4.52-29.89,25-25,45.75,6.2,26.31,41,35.43,61.65,16.15,5.57-5.2,5.67-4.89-2.44-9L284.34,81l-2.65,2.27c-12.55,10.74-30.36,6.49-33.61-8-1.11-4.92-2.46-4.66,25.56-4.66h24.79l.38-1.41a29.15,29.15,0,0,0,.37-5.46C299.18,40.76,279,25.5,256,31.07Zm8.25,28.31H248.7V57.82c0-9.31,13.8-16.92,23.06-12.72h0a15.48,15.48,0,0,1,9,10.75C281.58,59.3,281.19,59.38,264.21,59.38Z"/><path class="cls-2" d="M335.84,31.05h0c-18.6,4.52-29.48,25.08-24.49,46.27,6.1,25.89,40.48,34.64,61.56,15.67,5.22-4.69,5.22-4.74-.31-7.82-7.84-4.37-8.18-4.43-10.87-2.07-10.95,9.62-28.83,7.07-32.83-4.69-.88-2.57-1.39-6.85-.88-7.31.08-.08,11.52-.29,25.41-.47l25.25-.33.17-5.81C379.59,41,359.43,25.34,335.84,31.05ZM344,59.38H328.5V57.82c0-9.31,13.81-16.92,23.06-12.72h0a15.48,15.48,0,0,1,9,10.75C361.38,59.3,361,59.38,344,59.38Z"/><path class="cls-2" d="M96.76,53.38c-3.56-1.74-4.19-3-1.79-3.57,11.82-3,15-25.91,4.93-35.36C92.05,7.1,90.58,6.79,61.5,6.54L37.33,6.33V53.76l0,0v47.44H60.27c25,0,29-.37,35-3.15C114.23,89.2,115.14,62.37,96.76,53.38ZM56.44,22.29c.73-1.9,22.1-1.12,25.73.93h0c8.81,5,7.36,17.64-2.44,21.2-3.13,1.13-21.53,1.64-22.76.62C56,44.24,55.55,24.64,56.44,22.29ZM89.8,78.41c-2.84,6.17-6.58,7.47-21.58,7.47H56.38L56.2,73.81c-.13-8.81,0-12.32.59-13,.94-1.14,21.82-.82,25.63.38h0A12.46,12.46,0,0,1,89.8,78.41Z"/></svg>